<?xml version="1.0" encoding="UTF-8"?>
<svg width="200px" height="25px" viewBox="0 0 200 25" version="1.1" xmlns="http://www.w3.org/2000/svg" xmlns:xlink="http://www.w3.org/1999/xlink">
    <!-- Generator: Sketch 48.2 (47327) - http://www.bohemiancoding.com/sketch -->
    <title>horizontal_logo_white</title>
    <desc>Created with Sketch.</desc>
    <defs></defs>
    <g id="v1" stroke="none" stroke-width="1" fill="none" fill-rule="evenodd" transform="translate(-100.000000, -488.000000)">
        <g id="horizontal_logo_white" transform="translate(100.000000, 488.000000)" fill="#FFFFFF" fill-rule="nonzero">
            <path d="M68.7525562,5.98360656 C67.9345603,5.57377049 67.0347648,5.32786885 66.0940695,5.28688525 L62.4948875,5.28688525 C61.5541922,5.32786885 60.7770961,5.98360656 60.6134969,6.92622951 L58.7321063,20.1639344 C58.6503067,20.6147541 58.7730061,21.0655738 59.0593047,21.3934426 C59.3456033,21.7213115 59.7546012,21.9262295 60.204499,21.8852459 C61.1451943,21.8442623 61.9222904,21.1885246 62.0858896,20.2459016 L62.6175869,16.5983607 L64.2944785,16.5983607 L66.4621677,21.0655738 C66.7075665,21.5983607 67.2801636,21.8852459 67.8527607,21.8852459 C68.1799591,21.8852459 68.4662577,21.8032787 68.7525562,21.6393443 C69.2842536,21.352459 69.6114519,20.8606557 69.7341513,20.2459016 C69.7750511,19.9180328 69.7341513,19.6311475 69.6114519,19.3442623 L67.8936605,15.7377049 C68.7525562,15.2459016 69.4887526,14.5491803 70.0204499,13.6885246 C70.5521472,12.8688525 70.9202454,11.9262295 71.0838446,10.942623 C71.3701431,8.7295082 70.5521472,6.92622951 68.7525562,5.98360656 Z M67.6482618,10.9016393 C67.5664622,11.352459 67.3619632,11.8032787 67.1165644,12.2131148 C66.6257669,12.9508197 65.807771,13.3196721 64.9488753,13.2377049 L63.1083845,13.2377049 L63.7627812,8.7295082 L65.7259714,8.7295082 C66.1349693,8.7295082 66.5439673,8.85245902 66.9120654,9.01639344 C67.5664622,9.3442623 67.8118609,9.95901639 67.6482618,10.9016393 Z" id="Shape"></path>
            <path d="M84.0899796,5.28688525 C83.1492843,5.32786885 82.3721881,5.98360656 82.208589,6.92622951 L80.9815951,15.5327869 C80.9815951,15.5737705 80.408998,18.5245902 77.9141104,18.5245902 C77.3415133,18.5655738 76.7280164,18.3196721 76.3190184,17.9098361 C75.6646217,17.1721311 75.7055215,15.942623 75.7464213,15.6557377 L76.9734151,7.04918033 C77.0552147,6.59836066 76.9325153,6.14754098 76.6462168,5.81967213 C76.3599182,5.49180328 75.9509202,5.28688525 75.5010225,5.32786885 C74.5603272,5.36885246 73.7832311,6.02459016 73.6196319,6.96721311 L72.392638,15.5737705 C72.2699387,16.5983607 72.3517382,17.6229508 72.6380368,18.6065574 C73.3333333,20.7786885 75.0511247,21.9672131 77.5051125,21.9672131 C79.8773006,22.0081967 82.0449898,20.7377049 83.2310838,18.6885246 C83.803681,17.7459016 84.1717791,16.7213115 84.3353783,15.6557377 L85.5623722,7.04918033 C85.6441718,6.59836066 85.5214724,6.14754098 85.2351738,5.81967213 C84.9488753,5.49180328 84.5398773,5.28688525 84.0899796,5.28688525 Z" id="Shape"></path>
            <path d="M99.2229039,5.28688525 C98.2822086,5.28688525 97.4642127,5.98360656 97.3415133,6.92622951 L96.196319,14.9180328 L91.2474438,6.06557377 C91.002045,5.57377049 90.4703476,5.28688525 89.9386503,5.28688525 C88.997955,5.28688525 88.1799591,5.98360656 88.0572597,6.92622951 L86.1758691,20.1639344 C86.0940695,20.6147541 86.2167689,21.0655738 86.5030675,21.3934426 C86.7893661,21.7213115 87.198364,21.9262295 87.6482618,21.8852459 C88.5889571,21.8442623 89.3660532,21.1885246 89.5296524,20.2459016 L90.6748466,12.2540984 L95.6237219,21.147541 C95.9100204,21.6393443 96.400818,21.9262295 96.9325153,21.8852459 C97.8732106,21.8442623 98.6503067,21.1885246 98.8139059,20.2459016 L100.695297,6.96721311 C100.777096,6.51639344 100.654397,6.06557377 100.368098,5.73770492 C100.0818,5.49180328 99.6728016,5.28688525 99.2229039,5.28688525 Z" id="Shape"></path>
            <path d="M115.051125,6.31147541 C113.865031,5.6557377 112.556237,5.28688525 111.206544,5.28688525 C106.666667,5.28688525 102.413088,8.97540984 101.799591,13.5655738 C101.431493,15.6967213 102.04499,17.8688525 103.435583,19.5081967 C104.826176,21.1065574 106.871166,21.9672131 108.957055,21.9262295 C110.388548,21.9262295 111.779141,21.557377 113.047035,20.942623 C113.865031,20.5327869 114.314928,19.5901639 114.02863,18.6885246 C113.865031,18.3196721 113.578732,18.0327869 113.210634,17.8688525 C112.760736,17.704918 112.229039,17.7459016 111.779141,17.9508197 C111.002045,18.3606557 110.184049,18.5655738 109.325153,18.5655738 C108.09816,18.6065574 106.912065,18.0737705 106.09407,17.1721311 C105.276074,16.2295082 104.948875,14.9590164 105.153374,13.6885246 C105.603272,10.8606557 108.01636,8.7704918 110.838446,8.7295082 C111.615542,8.7295082 112.392638,8.89344262 113.087935,9.30327869 C113.94683,9.71311475 114.969325,9.42622951 115.460123,8.64754098 C115.746421,8.27868852 115.828221,7.78688525 115.746421,7.29508197 C115.623722,6.8852459 115.378323,6.51639344 115.051125,6.31147541 Z" id="Shape"></path>
            <path d="M123.680982,18.5655738 L119.468303,18.5655738 L121.104294,7.04918033 C121.186094,6.59836066 121.063395,6.14754098 120.777096,5.81967213 C120.490798,5.49180328 120.0818,5.28688525 119.631902,5.32786885 C118.691207,5.32786885 117.873211,6.02459016 117.750511,6.96721311 L115.869121,20.204918 C115.705521,21.0245902 116.237219,21.8032787 117.055215,21.9262295 C117.177914,21.9262295 117.259714,21.9672131 117.382413,21.9672131 L123.312883,21.9672131 C124.253579,21.9262295 125.030675,21.2704918 125.194274,20.3278689 C125.316973,19.5081967 124.785276,18.7295082 123.96728,18.6065574 C123.885481,18.5655738 123.762781,18.5655738 123.680982,18.5655738 Z" id="Shape"></path>
            <path d="M135.378323,5.28688525 C131.002045,5.28688525 126.952965,8.97540984 126.298569,13.5655738 C125.93047,15.7377049 126.543967,17.9508197 127.93456,19.6311475 C129.243354,21.147541 131.124744,21.9672131 133.128834,21.9262295 C137.505112,21.9262295 141.595092,18.2377049 142.249489,13.647541 C142.617587,11.4754098 142.00409,9.26229508 140.613497,7.58196721 C139.263804,6.10655738 137.382413,5.28688525 135.378323,5.28688525 Z M133.537832,18.5655738 C132.433538,18.5655738 131.370143,18.1147541 130.674847,17.295082 C129.856851,16.3114754 129.529652,15 129.734151,13.6885246 C130.143149,10.942623 132.515337,8.7295082 135.051125,8.7295082 C136.155419,8.7295082 137.218814,9.18032787 137.95501,10 C138.773006,10.9836066 139.141104,12.295082 138.895706,13.6065574 C138.486708,16.3114754 136.114519,18.5655738 133.537832,18.5655738 Z" id="Shape"></path>
            <path d="M155.541922,5.28688525 C154.601227,5.32786885 153.824131,5.98360656 153.660532,6.92622951 L152.433538,15.5327869 C152.433538,15.5737705 151.860941,18.5245902 149.366053,18.5245902 C148.793456,18.5655738 148.179959,18.3196721 147.770961,17.9098361 C147.116564,17.1721311 147.157464,15.942623 147.198364,15.6557377 L148.425358,7.04918033 C148.507157,6.59836066 148.384458,6.14754098 148.09816,5.81967213 C147.811861,5.49180328 147.402863,5.28688525 146.952965,5.32786885 C146.01227,5.36885246 145.235174,6.02459016 145.071575,6.96721311 L143.844581,15.5737705 C143.721881,16.5983607 143.803681,17.6229508 144.08998,18.6065574 C144.785276,20.7786885 146.543967,21.9672131 148.957055,21.9672131 C151.329243,22.0081967 153.496933,20.7377049 154.683027,18.6885246 C155.255624,17.7459016 155.623722,16.7213115 155.787321,15.6557377 L157.014315,7.04918033 C157.096115,6.59836066 156.973415,6.14754098 156.687117,5.81967213 C156.400818,5.49180328 155.99182,5.28688525 155.541922,5.28688525 Z" id="Shape"></path>
            <path d="M165.276074,5.28688525 L161.431493,5.28688525 C160.490798,5.32786885 159.713701,5.98360656 159.550102,6.92622951 L157.668712,20.1639344 C157.586912,20.6147541 157.709611,21.0655738 157.99591,21.3934426 C158.282209,21.7213115 158.691207,21.9262295 159.141104,21.8852459 L162.985685,21.8852459 C163.271984,21.8852459 170.06135,21.8032787 171.206544,13.6065574 C171.574642,10.9016393 171.124744,8.7704918 169.856851,7.29508197 C168.179959,5.36885246 165.562372,5.28688525 165.276074,5.28688525 Z M165.398773,17.9098361 C164.785276,18.2786885 164.08998,18.4836066 163.394683,18.5245902 L161.308793,18.5245902 L162.699387,8.68852459 L164.907975,8.68852459 C165.521472,8.7295082 166.134969,8.93442623 166.625767,9.26229508 C167.770961,10 168.179959,11.4754098 167.852761,13.5655738 C167.525562,15.6967213 166.748466,17.1311475 165.398773,17.9098361 Z" id="Shape"></path>
            <path d="M173.415133,18.5655738 C172.474438,18.6065574 171.697342,19.2622951 171.533742,20.204918 C171.451943,20.6557377 171.574642,21.1065574 171.860941,21.4344262 C172.147239,21.7622951 172.556237,21.9672131 173.006135,21.9262295 C173.94683,21.8852459 174.723926,21.2295082 174.887526,20.2868852 C175.010225,19.4672131 174.437628,18.6885246 173.619632,18.5655738 C173.578732,18.5655738 173.496933,18.5655738 173.415133,18.5655738 Z" id="Shape"></path>
            <path d="M180.981595,5.28688525 C180.0409,5.32786885 179.263804,5.98360656 179.100204,6.92622951 L177.218814,20.1639344 C177.137014,20.6147541 177.259714,21.0655738 177.546012,21.3934426 C177.832311,21.7213115 178.241309,21.9262295 178.691207,21.8852459 C179.631902,21.8442623 180.408998,21.1885246 180.572597,20.2459016 L182.453988,6.96721311 C182.535787,6.51639344 182.413088,6.06557377 182.126789,5.73770492 C181.840491,5.45081967 181.431493,5.28688525 180.981595,5.28688525 Z" id="Shape"></path>
            <path d="M197.873211,7.62295082 C196.564417,6.10655738 194.642127,5.28688525 192.638037,5.32786885 C188.261759,5.32786885 184.212679,9.01639344 183.558282,13.6065574 C183.190184,15.7786885 183.803681,17.9918033 185.194274,19.6721311 C186.503067,21.1885246 188.384458,22.0081967 190.388548,21.9672131 C194.764826,21.9672131 198.854806,18.2786885 199.509202,13.6885246 C199.877301,11.5163934 199.263804,9.30327869 197.873211,7.62295082 Z M190.756646,18.5655738 C189.652352,18.5655738 188.588957,18.1147541 187.893661,17.295082 C187.075665,16.3114754 186.748466,15 186.952965,13.6885246 C187.361963,10.942623 189.734151,8.7295082 192.269939,8.7295082 C193.374233,8.7295082 194.437628,9.18032787 195.173824,10 C195.99182,10.9836066 196.359918,12.295082 196.114519,13.6065574 C195.746421,16.3114754 193.333333,18.5655738 190.756646,18.5655738 Z" id="Shape"></path>
            <path d="M47.3619632,8.68852459 C46.6666667,8.7295082 46.1349693,9.3442623 46.1758691,10.0409836 C46.2167689,10.6967213 46.7484663,11.2295082 47.3619632,11.2295082 C48.0572597,11.1885246 48.5889571,10.5737705 48.5480573,9.87704918 C48.5071575,9.22131148 48.0163599,8.68852459 47.3619632,8.68852459 Z" id="Shape"></path>
            <path d="M49.8159509,4.83606557 C49.8159509,5.53278689 49.2433538,6.10655738 48.5480573,6.10655738 L44.0899796,6.10655738 C43.394683,6.14754098 42.7811861,5.6147541 42.7402863,4.91803279 C42.6993865,4.22131148 43.2310838,3.60655738 43.9263804,3.56557377 C43.9672802,3.56557377 44.00818,3.56557377 44.0899796,3.56557377 L48.5480573,3.56557377 C49.2433538,3.52459016 49.8159509,4.13934426 49.8159509,4.83606557 Z" id="Shape"></path>
            <path d="M54.1513292,8.68852459 L52.5562372,8.68852459 C51.8609407,8.64754098 51.2474438,9.18032787 51.206544,9.87704918 C51.1656442,10.5737705 51.6973415,11.1885246 52.392638,11.2295082 C52.4335378,11.2295082 52.4744376,11.2295082 52.5562372,11.2295082 L54.1513292,11.2295082 C54.8466258,11.1885246 55.3783231,10.5737705 55.3374233,9.87704918 C55.3374233,9.22131148 54.805726,8.68852459 54.1513292,8.68852459 Z" id="Shape"></path>
            <path d="M54.3149284,15.0819672 C54.3149284,15.7786885 53.7423313,16.352459 53.0470348,16.352459 L39.5501022,16.352459 C38.8548057,16.3934426 38.3231084,17.0081967 38.3640082,17.704918 C38.404908,18.3606557 38.9366053,18.8934426 39.5501022,18.8934426 L48.8343558,18.8934426 C49.5296524,18.852459 50.1431493,19.3852459 50.1840491,20.0819672 C50.2249489,20.7786885 49.6932515,21.3934426 48.997955,21.4344262 C48.9570552,21.4344262 48.9161554,21.4344262 48.8343558,21.4344262 L43.1492843,21.4344262 C43.0265849,21.6393443 42.8629857,21.8442623 42.6993865,22.0491803 C41.5132924,23.4836066 39.795501,24.3852459 37.9141104,24.6311475 L6.66666667,24.6311475 C3.19018405,24.6721311 0.327198364,21.9262295 0.286298569,18.442623 C0.245398773,15 2.94478528,12.1721311 6.3394683,12.0491803 C6.3394683,7.5 10.0204499,3.81147541 14.5194274,3.81147541 C15.7873211,3.81147541 17.0552147,4.09836066 18.200409,4.67213115 C21.9631902,-0.245901639 29.0388548,-1.18852459 33.9468303,2.62295082 C34.3149284,2.90983607 34.6421268,3.19672131 34.9693252,3.52459016 L38.9775051,3.52459016 C39.6728016,3.48360656 40.2862986,4.01639344 40.3271984,4.71311475 C40.3680982,5.40983607 39.8364008,6.02459016 39.1411043,6.06557377 C39.1002045,6.06557377 39.0593047,6.06557377 38.9775051,6.06557377 L34.9284254,6.06557377 C34.2331288,6.02459016 33.6196319,6.55737705 33.5787321,7.25409836 C33.5378323,7.95081967 34.0695297,8.56557377 34.7648262,8.60655738 C34.805726,8.60655738 34.8466258,8.60655738 34.9284254,8.60655738 L42.2903885,8.60655738 C42.9856851,8.56557377 43.599182,9.09836066 43.6400818,9.79508197 C43.6809816,10.4918033 43.1492843,11.1065574 42.4539877,11.147541 C42.4130879,11.147541 42.3721881,11.147541 42.2903885,11.147541 L36.2372188,11.147541 C35.5419223,11.1885246 35.0102249,11.8032787 35.0511247,12.5 C35.0920245,13.1557377 35.6237219,13.6885246 36.2372188,13.6885246 L53.006135,13.6885246 C53.7014315,13.7704918 54.2740286,14.3442623 54.3149284,15.0819672 C54.3149284,15.0819672 54.3149284,15.0819672 54.3149284,15.0819672 Z" id="Shape"></path>
        </g>
    </g>
</svg>